<svg width="10" height="21" viewBox="0 0 10 21" fill="none" xmlns="http://www.w3.org/2000/svg">
<g clip-path="url(#clip0)">
<path d="M9.72514 1.02684V4.13937H7.96197C7.90047 4.13037 7.82886 4.12547 7.75646 4.12547C7.33454 4.12547 6.94999 4.2914 6.65808 4.56521L6.65963 4.56358C6.44556 4.87745 6.3179 5.26896 6.3179 5.69236C6.3179 5.74304 6.31945 5.79371 6.32335 5.84357V5.83703V8.06517H9.61538L9.17945 11.5553H6.32802V20.5022H2.88963V11.5545H0.0249634V8.06517H2.88963V5.49456C2.88419 5.41119 2.88107 5.3131 2.88107 5.21502C2.88107 4.00695 3.32868 2.90841 4.05886 2.09268L4.05652 2.09514C4.81317 1.34316 5.8376 0.881348 6.96401 0.881348C7.03407 0.881348 7.10413 0.882982 7.17419 0.887069H7.16407C7.25592 0.885434 7.36335 0.884617 7.47155 0.884617C8.26556 0.884617 9.0479 0.936928 9.81544 1.03828L9.72437 1.02847L9.72514 1.02684Z" fill="#AEAEAE"/>
</g>
<defs>
<clipPath id="clip0">
<rect width="9.34132" height="19.6168" fill="white" transform="translate(0.0239563 0.88623)"/>
</clipPath>
</defs>
</svg>
