<svg width="29" height="20" viewBox="0 0 29 20" fill="none" xmlns="http://www.w3.org/2000/svg">
<g clip-path="url(#clip0)">
<path d="M11.1631 13.4202L18.7592 9.52787L11.1631 5.5898V13.4202ZM14.0677 -0.000159197C15.826 -0.000159197 17.5242 0.0232719 19.1622 0.0701342C20.8003 0.116997 22.0012 0.166311 22.765 0.218077L23.9107 0.283467C23.9211 0.283467 24.009 0.291368 24.1744 0.30717C24.3121 0.317796 24.4357 0.334143 24.5577 0.357029L24.5363 0.35376C24.6099 0.369562 24.733 0.392994 24.9055 0.424053C25.0745 0.452661 25.2253 0.495982 25.3679 0.553197L25.3531 0.548293C25.4789 0.600059 25.6256 0.667628 25.7932 0.751C25.9787 0.844179 26.1386 0.945533 26.2869 1.05915L26.2803 1.05424C26.4477 1.18339 26.596 1.31825 26.7328 1.46456L26.7353 1.46701C26.8194 1.55447 26.8993 1.64847 26.9727 1.74655L26.9785 1.75472C27.145 2.01465 27.2983 2.31544 27.4211 2.63012L27.4334 2.66609C27.6313 3.12299 27.7771 3.65265 27.8464 4.20682L27.8497 4.23543C27.9332 4.89967 27.9991 5.60806 28.0475 6.36058C28.0958 7.1131 28.1247 7.7016 28.134 8.12609V10.8659C28.1349 10.9297 28.1349 11.0057 28.1349 11.0809C28.1349 12.5954 28.0318 14.0871 27.8324 15.5478L27.8513 15.3778C27.7804 15.9532 27.6411 16.4763 27.4409 16.9683L27.4557 16.9267C27.3222 17.292 27.1524 17.6083 26.9447 17.8961L26.9529 17.8838L26.7337 18.1454C26.5944 18.2941 26.446 18.429 26.2869 18.5516L26.2787 18.5581C26.1377 18.6676 25.9778 18.7657 25.808 18.8467L25.7924 18.8532C25.6248 18.9311 25.4781 18.9965 25.3522 19.0494C25.2237 19.1017 25.0737 19.145 24.9179 19.172L24.9047 19.1736C24.7321 19.2047 24.6066 19.2281 24.528 19.2439C24.4494 19.2597 24.3291 19.2752 24.167 19.2905C24.0049 19.3057 23.9186 19.3136 23.9082 19.3142C21.2844 19.5169 18.0047 19.6182 14.0693 19.6182C11.9027 19.5975 10.0212 19.5638 8.42495 19.5169C6.82869 19.47 5.77944 19.4311 5.2772 19.4L4.50737 19.3346L3.94194 19.2692C3.60895 19.2284 3.318 19.1736 3.03364 19.1025L3.08474 19.1131C2.77483 19.0167 2.51025 18.9063 2.25804 18.7739L2.28441 18.7862C1.94071 18.6186 1.6481 18.4045 1.39836 18.1486L1.39753 18.1478C1.31346 18.0603 1.23351 17.9663 1.16016 17.8683L1.15439 17.8601C0.987891 17.6002 0.834583 17.2994 0.711772 16.9847L0.699409 16.9487C0.501593 16.4918 0.355703 15.9622 0.286468 15.408L0.283171 15.3794C0.199648 14.7151 0.13371 14.0068 0.0853546 13.2542C0.0369996 12.5017 0.00815139 11.9132 -0.00118993 11.4887V8.74892C-0.00201416 8.68517 -0.00201416 8.60915 -0.00201416 8.53395C-0.00201416 7.01937 0.101015 5.52768 0.30048 4.06705L0.281522 4.23706C0.352406 3.66164 0.491702 3.13852 0.691991 2.64647L0.677155 2.68816C0.81068 2.32279 0.980473 2.00647 1.18818 1.71876L1.17994 1.73102L1.39918 1.46946C1.53848 1.3207 1.68684 1.18584 1.84592 1.06323L1.85416 1.05669C1.99593 0.947167 2.15501 0.846631 2.32397 0.760808L2.34128 0.752634C2.50888 0.669808 2.65559 0.602239 2.78142 0.549928C2.91 0.497616 3.06001 0.454296 3.2158 0.427323L3.22898 0.425688C3.40152 0.394628 3.52461 0.371197 3.59824 0.355395C3.69797 0.335778 3.82161 0.319431 3.94771 0.309622L3.96008 0.308805C4.12767 0.293002 4.21559 0.285101 4.22383 0.285101C6.85204 0.0943827 10.1341 -0.000976562 14.0701 -0.000976562L14.0677 -0.000159197Z" fill="#AEAEAE"/>
</g>
<defs>
<clipPath id="clip0">
<rect width="28.024" height="19.6168" fill="white"/>
</clipPath>
</defs>
</svg>
