<svg width="26" height="21" viewBox="0 0 26 21" fill="none" xmlns="http://www.w3.org/2000/svg">
<path d="M25.6429 3.29057C24.9284 4.29095 24.0729 5.13767 23.0909 5.8291L23.0603 5.84953C23.0705 5.99229 23.0756 6.20669 23.0756 6.49274C23.0722 7.91157 22.8513 9.27973 22.4427 10.5686L22.4699 10.4689C22.0162 11.918 21.3893 13.1823 20.5958 14.3298L20.6298 14.2767C19.7896 15.51 18.8186 16.5717 17.7117 17.4862L17.6913 17.5026C16.5258 18.4449 15.1614 19.205 13.673 19.7125L13.5813 19.7395C12.0819 20.2691 10.3506 20.5748 8.54531 20.5748C8.50708 20.5748 8.46885 20.5748 8.43148 20.5748H8.43742C8.40514 20.5748 8.36776 20.5748 8.32953 20.5748C5.43265 20.5748 2.73626 19.7452 0.485016 18.319L0.538536 18.3509C0.894487 18.3901 1.30651 18.4122 1.72447 18.4122H1.78394H1.78054C1.81197 18.4122 1.8502 18.413 1.88758 18.413C4.2722 18.413 6.46313 17.6162 8.18851 16.2831L8.16897 16.2979C5.92708 16.257 4.03943 14.8455 3.36915 12.9004L3.35896 12.8652C3.6495 12.9118 3.98591 12.9396 4.32827 12.942H4.33082C4.8125 12.942 5.27889 12.8807 5.72149 12.7655L5.68411 12.7737C4.48458 12.5416 3.4626 11.9286 2.73626 11.0737L2.72946 11.0647C2.00057 10.2384 1.55797 9.15958 1.55797 7.98104C1.55797 7.95816 1.55797 7.93527 1.55882 7.91239V7.91566V7.85436C2.22824 8.22378 3.0251 8.45262 3.87547 8.48205H3.88482C3.18651 8.03008 2.62157 7.43672 2.22569 6.74202L2.2121 6.71668C1.82132 6.03424 1.5911 5.22103 1.5911 4.35551C1.5911 3.43524 1.85105 2.5738 2.3047 1.83497L2.29196 1.85785C3.56624 3.36086 5.12682 4.58844 6.90063 5.47603L6.98134 5.5128C8.69908 6.38486 10.7209 6.93735 12.866 7.03625L12.8983 7.03706C12.8193 6.69789 12.7734 6.30804 12.7717 5.90756V5.90674C12.7751 3.17288 15.0799 0.958008 17.9215 0.958008C19.3997 0.958008 20.7326 1.55709 21.6722 2.51741L21.6747 2.51986C22.9048 2.28775 23.9982 1.87256 24.9819 1.30046L24.9369 1.32497C24.5504 2.49453 23.7476 3.44668 22.6984 4.04085L22.6746 4.05311C23.7739 3.93215 24.7772 3.66163 25.7066 3.26279L25.6412 3.28812L25.6429 3.29057Z" fill="#AEAEAE"/>
</svg>
