<svg width="77" height="41" viewBox="0 0 77 41" fill="none" xmlns="http://www.w3.org/2000/svg">
<path d="M10.7539 23.5H2.25391L0.753906 2.1C0.753906 1.2 1.37057 0.75 2.60391 0.75H10.4039C11.6372 0.75 12.2539 1.2 12.2539 2.1L10.7539 23.5ZM2.00391 31.5C1.27057 30.9333 0.903907 29.9333 0.903907 28.5C0.903907 27.0667 1.28724 26.05 2.05391 25.45C2.82057 24.85 4.30391 24.55 6.50391 24.55C8.70391 24.55 10.1706 24.85 10.9039 25.45C11.6706 26.05 12.0539 27.0667 12.0539 28.5C12.0539 29.9333 11.6706 30.9333 10.9039 31.5C10.1706 32.0667 8.68724 32.35 6.45391 32.35C4.25391 32.35 2.77057 32.0667 2.00391 31.5Z" fill="url(#paint0_linear)"/>
<path d="M44.5078 32H33.5078L29.4078 22.7H27.2578V32H17.2578V0.75H33.0078C40.1745 0.75 43.7578 4.4 43.7578 11.7C43.7578 16.7 42.2078 20 39.1078 21.6L44.5078 32ZM27.2578 8.75V15H29.5578C30.7578 15 31.6245 14.8833 32.1578 14.65C32.7245 14.3833 33.0078 13.8 33.0078 12.9V10.85C33.0078 9.95 32.7245 9.38333 32.1578 9.15C31.6245 8.88333 30.7578 8.75 29.5578 8.75H27.2578Z" fill="url(#paint1_linear)"/>
<path d="M48.0195 32V0.75H62.0195C67.6529 0.75 71.5195 1.95 73.6195 4.35C75.7195 6.75 76.7695 10.7667 76.7695 16.4C76.7695 22 75.7195 26 73.6195 28.4C71.5195 30.8 67.6529 32 62.0195 32H48.0195ZM62.1695 8.75H58.0195V24H62.1695C63.5362 24 64.5195 23.85 65.1195 23.55C65.7529 23.2167 66.0695 22.4833 66.0695 21.35V11.4C66.0695 10.2667 65.7529 9.55 65.1195 9.25C64.5195 8.91667 63.5362 8.75 62.1695 8.75Z" fill="url(#paint2_linear)"/>
<path d="M3.28 26V40.72H2V26H3.28Z" fill="white"/>
<path d="M25.5206 26V40.72H24.2406V26H25.5206Z" fill="white"/>
<path d="M51.7815 26V40.72H50.5015V26H51.7815Z" fill="white"/>
<path d="M70.0019 26V40.72H68.7219V26H70.0019Z" fill="white"/>
<defs>
<linearGradient id="paint0_linear" x1="14.3867" y1="32.5556" x2="61" y2="32.5556" gradientUnits="userSpaceOnUse">
<stop stop-color="white"/>
</linearGradient>
<linearGradient id="paint1_linear" x1="14.3867" y1="32.5556" x2="61" y2="32.5556" gradientUnits="userSpaceOnUse">
<stop stop-color="white"/>
</linearGradient>
<linearGradient id="paint2_linear" x1="14.3867" y1="32.5556" x2="61" y2="32.5556" gradientUnits="userSpaceOnUse">
<stop stop-color="white"/>
</linearGradient>
</defs>
</svg>
