<svg xmlns="http://www.w3.org/2000/svg" xmlns:xlink="http://www.w3.org/1999/xlink"><symbol id="icon-angle-up" viewBox="0 0 24 24">
<path d="M21.57 19.2L24 16.778L12 4.80005L0 16.778L2.43 19.2L12 9.65305L21.57 19.2Z"/>
</symbol><symbol id="icon-facebook" viewBox="0 0 12 24"><path d="m12.462.173v3.808h-2.265c-.079-.011-.171-.017-.264-.017-.542 0-1.036.203-1.411.538l.002-.002c-.275.384-.439.863-.439 1.381 0 .062.002.124.007.185v-.008 2.726h4.229l-.56 4.27h-3.663v10.946h-4.417v-10.947h-3.68v-4.269h3.68v-3.145c-.007-.102-.011-.222-.011-.342 0-1.478.575-2.822 1.513-3.82l-.003.003c.972-.92 2.288-1.485 3.735-1.485.09 0 .18.002.27.007h-.013c.118-.002.256-.003.395-.003 1.02 0 2.025.064 3.011.188l-.117-.012z"/></symbol><symbol id="icon-instagram" viewBox="0 0 24 24"><path d="m16 12v-.001c0-2.209-1.791-4-4-4s-4 1.791-4 4 1.791 4 4 4c1.104 0 2.104-.448 2.828-1.171.723-.701 1.172-1.682 1.172-2.768 0-.021 0-.042-.001-.063v.003zm2.16 0c-.012 3.379-2.754 6.114-6.135 6.114-3.388 0-6.135-2.747-6.135-6.135s2.747-6.135 6.135-6.135c1.694 0 3.228.687 4.338 1.797 1.109 1.08 1.798 2.587 1.798 4.256 0 .036 0 .073-.001.109v-.005zm1.687-6.406v.002c0 .795-.645 1.44-1.44 1.44s-1.44-.645-1.44-1.44.645-1.44 1.44-1.44c.398 0 .758.161 1.018.422.256.251.415.601.415.988v.029-.001zm-7.84-3.44-1.195-.008q-1.086-.008-1.649 0t-1.508.047c-.585.02-1.14.078-1.683.17l.073-.01c-.425.07-.802.17-1.163.303l.043-.014c-1.044.425-1.857 1.237-2.272 2.254l-.01.027c-.119.318-.219.695-.284 1.083l-.005.037c-.082.469-.14 1.024-.159 1.589l-.001.021q-.039.946-.047 1.508t0 1.649.008 1.195-.008 1.195 0 1.649.047 1.508c.02.585.078 1.14.17 1.683l-.01-.073c.07.425.17.802.303 1.163l-.014-.043c.425 1.044 1.237 1.857 2.254 2.272l.027.01c.318.119.695.219 1.083.284l.037.005c.469.082 1.024.14 1.588.159l.021.001q.946.039 1.508.047t1.649 0l1.188-.024 1.195.008q1.086.008 1.649 0t1.508-.047c.585-.02 1.14-.078 1.683-.17l-.073.01c.425-.07.802-.17 1.163-.303l-.043.014c1.044-.425 1.857-1.237 2.272-2.254l.01-.027c.119-.318.219-.695.284-1.083l.005-.037c.082-.469.14-1.024.159-1.588l.001-.021q.039-.946.047-1.508t0-1.649-.008-1.195.008-1.195 0-1.649-.047-1.508c-.02-.585-.078-1.14-.17-1.683l.01.073c-.07-.425-.17-.802-.303-1.163l.014.043c-.425-1.044-1.237-1.857-2.254-2.272l-.027-.01c-.318-.119-.695-.219-1.083-.284l-.037-.005c-.469-.082-1.024-.14-1.588-.159l-.021-.001q-.946-.039-1.508-.047t-1.649 0zm11.993 9.846q0 3.578-.08 4.953c.005.101.009.219.009.337 0 3.667-2.973 6.64-6.64 6.64-.119 0-.237-.003-.354-.009l.016.001q-1.375.08-4.953.08t-4.953-.08c-.101.005-.219.009-.337.009-3.667 0-6.64-2.973-6.64-6.64 0-.119.003-.237.009-.354l-.001.016q-.08-1.375-.08-4.953t.08-4.953c-.005-.101-.009-.219-.009-.337 0-3.667 2.973-6.64 6.64-6.64.119 0 .237.003.354.009l-.016-.001q1.375-.08 4.953-.08t4.953.08c.101-.005.219-.009.337-.009 3.667 0 6.64 2.973 6.64 6.64 0 .119-.003.237-.009.354l.001-.016q.08 1.374.08 4.953z"/></symbol><symbol id="icon-twitter" viewBox="0 0 30 24"><path d="m29.55 2.85c-.841 1.224-1.848 2.26-3.004 3.106l-.036.025q.018.262.018.787c-.004 1.736-.264 3.41-.745 4.987l.032-.122c-.534 1.773-1.272 3.32-2.206 4.724l.04-.065c-.989 1.509-2.132 2.808-3.435 3.927l-.024.02c-1.372 1.153-2.978 2.083-4.73 2.704l-.108.033c-1.765.648-3.803 1.022-5.928 1.022-.045 0-.09 0-.134 0h.007c-.038 0-.082 0-.127 0-3.41 0-6.584-1.015-9.234-2.76l.063.039c.419.048.904.075 1.396.075h.07-.004c.037 0 .082.001.126.001 2.807 0 5.386-.975 7.417-2.606l-.023.018c-2.639-.05-4.861-1.777-5.65-4.157l-.012-.043c.342.057.738.091 1.141.094h.003c.567 0 1.116-.075 1.637-.216l-.044.01c-1.412-.284-2.615-1.034-3.47-2.08l-.008-.011c-.858-1.011-1.379-2.331-1.379-3.773 0-.028 0-.056.001-.084v.004-.075c.788.452 1.726.732 2.727.768h.011c-.822-.553-1.487-1.279-1.953-2.129l-.016-.031c-.46-.835-.731-1.83-.731-2.889 0-1.126.306-2.18.84-3.084l-.015.028c1.5 1.839 3.337 3.341 5.425 4.427l.095.045c2.022 1.067 4.402 1.743 6.927 1.864l.038.001c-.093-.415-.147-.892-.149-1.382v-.001c.004-3.345 2.717-6.055 6.062-6.055 1.74 0 3.309.733 4.415 1.908l.003.003c1.448-.284 2.735-.792 3.893-1.492l-.053.03c-.455 1.431-1.4 2.596-2.635 3.323l-.028.015c1.294-.148 2.475-.479 3.569-.967l-.077.031z"/></symbol><symbol id="icon-youtube-play" viewBox="0 0 34 24"><path d="m13.544 16.419 9.216-4.762-9.216-4.818zm3.524-16.419q3.2 0 6.181.086t4.371.181l1.39.08q.019 0 .32.029c.167.013.317.033.465.061l-.026-.004q.134.029.448.086c.205.035.388.088.561.158l-.018-.006q.229.095.534.248c.225.114.419.238.599.377l-.008-.006c.203.158.383.323.549.502l.003.003c.102.107.199.222.288.342l.007.01c.202.318.388.686.537 1.071l.015.044c.24.559.417 1.207.501 1.885l.004.035q.152 1.219.24 2.6t.105 2.16v3.352c.001.078.001.171.001.263 0 1.853-.125 3.678-.367 5.465l.023-.208c-.086.704-.255 1.344-.498 1.946l.018-.051c-.162.447-.368.834-.62 1.186l.01-.015-.266.32c-.169.182-.349.347-.542.497l-.01.008c-.171.134-.365.254-.571.353l-.019.008q-.305.143-.534.24c-.156.064-.338.117-.527.15l-.016.002q-.314.057-.457.086t-.438.057-.314.029q-4.775.372-11.937.372-3.943-.038-6.848-.124t-3.819-.143l-.934-.08-.686-.08c-.404-.05-.757-.117-1.102-.204l.062.013c-.376-.118-.697-.253-1.003-.415l.032.015c-.417-.205-.772-.467-1.075-.78l-.001-.001c-.102-.107-.199-.222-.288-.342l-.007-.01c-.202-.318-.388-.686-.537-1.071l-.015-.044c-.24-.559-.417-1.207-.501-1.885l-.004-.035q-.152-1.219-.24-2.6t-.105-2.16v-3.352c-.001-.078-.001-.171-.001-.263 0-1.853.125-3.678.367-5.465l-.023.208c.086-.704.255-1.344.498-1.946l-.018.051c.162-.447.368-.834.62-1.186l-.01.015.266-.32c.169-.182.349-.347.542-.497l.01-.008c.172-.134.365-.257.57-.362l.021-.01q.305-.152.534-.248c.156-.064.338-.117.527-.15l.016-.002q.314-.057.448-.086c.121-.024.271-.044.424-.056l.015-.001q.305-.029.32-.029 4.783-.35 11.946-.35z"/></symbol></svg>