<svg xmlns="http://www.w3.org/2000/svg" xmlns:xlink="http://www.w3.org/1999/xlink"><defs>
<clipPath id="clip0">
<rect width="9.34132" height="19.6168" transform="translate(0.0239563 0.88623)"/>
</clipPath>

<clipPath id="clip0">
<rect width="24" height="24"/>
</clipPath>

<clipPath id="clip0">
<rect width="28.024" height="19.6168"/>
</clipPath>
</defs><symbol id="icon-angle-up" viewBox="0 0 24 24">
<path d="M21.57 19.2L24 16.778L12 4.80005L0 16.778L2.43 19.2L12 9.65305L21.57 19.2Z"/>
</symbol><symbol id="icon-facebook" viewBox="0 0 10 21">
<g clip-path="url(#clip0)">
<path d="M9.72514 1.02684V4.13937H7.96197C7.90047 4.13037 7.82886 4.12547 7.75646 4.12547C7.33454 4.12547 6.94999 4.2914 6.65808 4.56521L6.65963 4.56358C6.44556 4.87745 6.3179 5.26896 6.3179 5.69236C6.3179 5.74304 6.31945 5.79371 6.32335 5.84357V5.83703V8.06517H9.61538L9.17945 11.5553H6.32802V20.5022H2.88963V11.5545H0.0249634V8.06517H2.88963V5.49456C2.88419 5.41119 2.88107 5.3131 2.88107 5.21502C2.88107 4.00695 3.32868 2.90841 4.05886 2.09268L4.05652 2.09514C4.81317 1.34316 5.8376 0.881348 6.96401 0.881348C7.03407 0.881348 7.10413 0.882982 7.17419 0.887069H7.16407C7.25592 0.885434 7.36335 0.884617 7.47155 0.884617C8.26556 0.884617 9.0479 0.936928 9.81544 1.03828L9.72437 1.02847L9.72514 1.02684Z"/>
</g>

</symbol><symbol id="icon-instagram" viewBox="0 0 24 24">
<g clip-path="url(#clip0)">
<path d="M16 12V11.999C16 9.79005 14.209 7.99905 12 7.99905C9.791 7.99905 8 9.79005 8 11.999C8 14.208 9.791 15.999 12 15.999C13.104 15.999 14.104 15.551 14.828 14.828C15.551 14.127 16 13.146 16 12.06C16 12.039 16 12.018 15.999 11.997V12H16ZM18.16 12C18.148 15.379 15.406 18.114 12.025 18.114C8.637 18.114 5.89 15.367 5.89 11.979C5.89 8.59105 8.637 5.84405 12.025 5.84405C13.719 5.84405 15.253 6.53105 16.363 7.64105C17.472 8.72105 18.161 10.228 18.161 11.897C18.161 11.933 18.161 11.97 18.16 12.006V12.001V12ZM19.847 5.59405V5.59605C19.847 6.39105 19.202 7.03605 18.407 7.03605C17.612 7.03605 16.967 6.39105 16.967 5.59605C16.967 4.80105 17.612 4.15605 18.407 4.15605C18.805 4.15605 19.165 4.31705 19.425 4.57805C19.681 4.82905 19.84 5.17905 19.84 5.56605V5.59505V5.59405H19.847ZM12.007 2.15405L10.812 2.14605C10.088 2.14071 9.53834 2.14071 9.163 2.14605C8.78767 2.15138 8.285 2.16705 7.655 2.19305C7.07 2.21305 6.515 2.27105 5.972 2.36305L6.045 2.35305C5.62 2.42305 5.243 2.52305 4.882 2.65605L4.925 2.64205C3.881 3.06705 3.068 3.87905 2.653 4.89605L2.643 4.92305C2.524 5.24105 2.424 5.61805 2.359 6.00605L2.354 6.04305C2.272 6.51205 2.214 7.06705 2.195 7.63205L2.194 7.65305C2.168 8.28371 2.15234 8.78638 2.147 9.16105C2.14167 9.53571 2.14167 10.0854 2.147 10.81C2.15234 11.5347 2.155 11.933 2.155 12.005C2.155 12.077 2.15234 12.4754 2.147 13.2C2.14167 13.9247 2.14167 14.4744 2.147 14.849C2.15234 15.2237 2.168 15.7264 2.194 16.357C2.214 16.942 2.272 17.497 2.364 18.04L2.354 17.967C2.424 18.392 2.524 18.769 2.657 19.13L2.643 19.087C3.068 20.131 3.88 20.944 4.897 21.359L4.924 21.369C5.242 21.488 5.619 21.588 6.007 21.653L6.044 21.658C6.513 21.74 7.068 21.798 7.632 21.817L7.653 21.818C8.28367 21.844 8.78634 21.8597 9.161 21.865C9.53567 21.8704 10.0853 21.8704 10.81 21.865L11.998 21.841L13.193 21.849C13.917 21.8544 14.4667 21.8544 14.842 21.849C15.2173 21.8437 15.72 21.828 16.35 21.802C16.935 21.782 17.49 21.724 18.033 21.632L17.96 21.642C18.385 21.572 18.762 21.472 19.123 21.339L19.08 21.353C20.124 20.928 20.937 20.116 21.352 19.099L21.362 19.072C21.481 18.754 21.581 18.377 21.646 17.989L21.651 17.952C21.733 17.483 21.791 16.928 21.81 16.364L21.811 16.343C21.837 15.7124 21.8527 15.2097 21.858 14.835C21.8633 14.4604 21.8633 13.9107 21.858 13.186C21.8527 12.4614 21.85 12.063 21.85 11.991C21.85 11.919 21.8527 11.5207 21.858 10.796C21.8633 10.0714 21.8633 9.52171 21.858 9.14705C21.8527 8.77238 21.837 8.26971 21.811 7.63905C21.791 7.05405 21.733 6.49905 21.641 5.95605L21.651 6.02905C21.581 5.60405 21.481 5.22705 21.348 4.86605L21.362 4.90905C20.937 3.86505 20.125 3.05205 19.108 2.63705L19.081 2.62705C18.763 2.50805 18.386 2.40805 17.998 2.34305L17.961 2.33805C17.492 2.25605 16.937 2.19805 16.373 2.17905L16.352 2.17805C15.7213 2.15205 15.2187 2.13638 14.844 2.13105C14.4693 2.12571 13.9197 2.12571 13.195 2.13105L12.007 2.15405ZM24 12C24 14.3854 23.9733 16.0364 23.92 16.953C23.925 17.054 23.929 17.172 23.929 17.29C23.929 20.957 20.956 23.93 17.289 23.93C17.17 23.93 17.052 23.927 16.935 23.921L16.951 23.922C16.0343 23.9754 14.3833 24.002 11.998 24.002C9.61267 24.002 7.96167 23.9754 7.045 23.922C6.944 23.927 6.826 23.931 6.708 23.931C3.041 23.931 0.0680022 20.958 0.0680022 17.291C0.0680022 17.172 0.0710022 17.054 0.0770022 16.937L0.0760022 16.953C0.0226689 16.0364 -0.0039978 14.3854 -0.0039978 12C-0.0039978 9.61471 0.0226689 7.96371 0.0760022 7.04705C0.0710022 6.94605 0.0670022 6.82805 0.0670022 6.71005C0.0670022 3.04305 3.04 0.0700469 6.707 0.0700469C6.826 0.0700469 6.944 0.0730469 7.061 0.0790469L7.045 0.0780469C7.96167 0.0247135 9.61267 -0.00195312 11.998 -0.00195312C14.3833 -0.00195312 16.0343 0.0247135 16.951 0.0780469C17.052 0.0730469 17.17 0.0690469 17.288 0.0690469C20.955 0.0690469 23.928 3.04205 23.928 6.70905C23.928 6.82805 23.925 6.94605 23.919 7.06305L23.92 7.04705C23.9733 7.96305 24 9.61405 24 12Z"/>
</g>

</symbol><symbol id="icon-twitter" viewBox="0 0 26 21">
<path d="M25.6429 3.29057C24.9284 4.29095 24.0729 5.13767 23.0909 5.8291L23.0603 5.84953C23.0705 5.99229 23.0756 6.20669 23.0756 6.49274C23.0722 7.91157 22.8513 9.27973 22.4427 10.5686L22.4699 10.4689C22.0162 11.918 21.3893 13.1823 20.5958 14.3298L20.6298 14.2767C19.7896 15.51 18.8186 16.5717 17.7117 17.4862L17.6913 17.5026C16.5258 18.4449 15.1614 19.205 13.673 19.7125L13.5813 19.7395C12.0819 20.2691 10.3506 20.5748 8.54531 20.5748C8.50708 20.5748 8.46885 20.5748 8.43148 20.5748H8.43742C8.40514 20.5748 8.36776 20.5748 8.32953 20.5748C5.43265 20.5748 2.73626 19.7452 0.485016 18.319L0.538536 18.3509C0.894487 18.3901 1.30651 18.4122 1.72447 18.4122H1.78394H1.78054C1.81197 18.4122 1.8502 18.413 1.88758 18.413C4.2722 18.413 6.46313 17.6162 8.18851 16.2831L8.16897 16.2979C5.92708 16.257 4.03943 14.8455 3.36915 12.9004L3.35896 12.8652C3.6495 12.9118 3.98591 12.9396 4.32827 12.942H4.33082C4.8125 12.942 5.27889 12.8807 5.72149 12.7655L5.68411 12.7737C4.48458 12.5416 3.4626 11.9286 2.73626 11.0737L2.72946 11.0647C2.00057 10.2384 1.55797 9.15958 1.55797 7.98104C1.55797 7.95816 1.55797 7.93527 1.55882 7.91239V7.91566V7.85436C2.22824 8.22378 3.0251 8.45262 3.87547 8.48205H3.88482C3.18651 8.03008 2.62157 7.43672 2.22569 6.74202L2.2121 6.71668C1.82132 6.03424 1.5911 5.22103 1.5911 4.35551C1.5911 3.43524 1.85105 2.5738 2.3047 1.83497L2.29196 1.85785C3.56624 3.36086 5.12682 4.58844 6.90063 5.47603L6.98134 5.5128C8.69908 6.38486 10.7209 6.93735 12.866 7.03625L12.8983 7.03706C12.8193 6.69789 12.7734 6.30804 12.7717 5.90756V5.90674C12.7751 3.17288 15.0799 0.958008 17.9215 0.958008C19.3997 0.958008 20.7326 1.55709 21.6722 2.51741L21.6747 2.51986C22.9048 2.28775 23.9982 1.87256 24.9819 1.30046L24.9369 1.32497C24.5504 2.49453 23.7476 3.44668 22.6984 4.04085L22.6746 4.05311C23.7739 3.93215 24.7772 3.66163 25.7066 3.26279L25.6412 3.28812L25.6429 3.29057Z"/>
</symbol><symbol id="icon-youtube-play" viewBox="0 0 29 20">
<g clip-path="url(#clip0)">
<path d="M11.1631 13.4202L18.7592 9.52787L11.1631 5.5898V13.4202ZM14.0677 -0.000159197C15.826 -0.000159197 17.5242 0.0232719 19.1622 0.0701342C20.8003 0.116997 22.0012 0.166311 22.765 0.218077L23.9107 0.283467C23.9211 0.283467 24.009 0.291368 24.1744 0.30717C24.3121 0.317796 24.4357 0.334143 24.5577 0.357029L24.5363 0.35376C24.6099 0.369562 24.733 0.392994 24.9055 0.424053C25.0745 0.452661 25.2253 0.495982 25.3679 0.553197L25.3531 0.548293C25.4789 0.600059 25.6256 0.667628 25.7932 0.751C25.9787 0.844179 26.1386 0.945533 26.2869 1.05915L26.2803 1.05424C26.4477 1.18339 26.596 1.31825 26.7328 1.46456L26.7353 1.46701C26.8194 1.55447 26.8993 1.64847 26.9727 1.74655L26.9785 1.75472C27.145 2.01465 27.2983 2.31544 27.4211 2.63012L27.4334 2.66609C27.6313 3.12299 27.7771 3.65265 27.8464 4.20682L27.8497 4.23543C27.9332 4.89967 27.9991 5.60806 28.0475 6.36058C28.0958 7.1131 28.1247 7.7016 28.134 8.12609V10.8659C28.1349 10.9297 28.1349 11.0057 28.1349 11.0809C28.1349 12.5954 28.0318 14.0871 27.8324 15.5478L27.8513 15.3778C27.7804 15.9532 27.6411 16.4763 27.4409 16.9683L27.4557 16.9267C27.3222 17.292 27.1524 17.6083 26.9447 17.8961L26.9529 17.8838L26.7337 18.1454C26.5944 18.2941 26.446 18.429 26.2869 18.5516L26.2787 18.5581C26.1377 18.6676 25.9778 18.7657 25.808 18.8467L25.7924 18.8532C25.6248 18.9311 25.4781 18.9965 25.3522 19.0494C25.2237 19.1017 25.0737 19.145 24.9179 19.172L24.9047 19.1736C24.7321 19.2047 24.6066 19.2281 24.528 19.2439C24.4494 19.2597 24.3291 19.2752 24.167 19.2905C24.0049 19.3057 23.9186 19.3136 23.9082 19.3142C21.2844 19.5169 18.0047 19.6182 14.0693 19.6182C11.9027 19.5975 10.0212 19.5638 8.42495 19.5169C6.82869 19.47 5.77944 19.4311 5.2772 19.4L4.50737 19.3346L3.94194 19.2692C3.60895 19.2284 3.318 19.1736 3.03364 19.1025L3.08474 19.1131C2.77483 19.0167 2.51025 18.9063 2.25804 18.7739L2.28441 18.7862C1.94071 18.6186 1.6481 18.4045 1.39836 18.1486L1.39753 18.1478C1.31346 18.0603 1.23351 17.9663 1.16016 17.8683L1.15439 17.8601C0.987891 17.6002 0.834583 17.2994 0.711772 16.9847L0.699409 16.9487C0.501593 16.4918 0.355703 15.9622 0.286468 15.408L0.283171 15.3794C0.199648 14.7151 0.13371 14.0068 0.0853546 13.2542C0.0369996 12.5017 0.00815139 11.9132 -0.00118993 11.4887V8.74892C-0.00201416 8.68517 -0.00201416 8.60915 -0.00201416 8.53395C-0.00201416 7.01937 0.101015 5.52768 0.30048 4.06705L0.281522 4.23706C0.352406 3.66164 0.491702 3.13852 0.691991 2.64647L0.677155 2.68816C0.81068 2.32279 0.980473 2.00647 1.18818 1.71876L1.17994 1.73102L1.39918 1.46946C1.53848 1.3207 1.68684 1.18584 1.84592 1.06323L1.85416 1.05669C1.99593 0.947167 2.15501 0.846631 2.32397 0.760808L2.34128 0.752634C2.50888 0.669808 2.65559 0.602239 2.78142 0.549928C2.91 0.497616 3.06001 0.454296 3.2158 0.427323L3.22898 0.425688C3.40152 0.394628 3.52461 0.371197 3.59824 0.355395C3.69797 0.335778 3.82161 0.319431 3.94771 0.309622L3.96008 0.308805C4.12767 0.293002 4.21559 0.285101 4.22383 0.285101C6.85204 0.0943827 10.1341 -0.000976562 14.0701 -0.000976562L14.0677 -0.000159197Z"/>
</g>

</symbol></svg>